<svg xmlns="http://www.w3.org/2000/svg">
  <symbol id="icon-menu-burger" viewBox="0 0 49.945 24.007">
    <path d="M1.137 0C.51 0 0 .428 0 1.01v1.981c0 .558.494 1.01 1.139 1.01H48.81c.628 0 1.138-.428 1.138-1.01V1.01c0-.558-.494-1.01-1.138-1.01H1.137zm0 10.003c-.627 0-1.137.428-1.137 1.01v1.98c0 .557.494 1.01 1.139 1.01H48.81c.628 0 1.138-.428 1.138-1.01v-1.98c0-.558-.494-1.01-1.138-1.01H1.137zm0 10.002C.51 20.005 0 20.434 0 21.016v1.981c0 .557.494 1.01 1.139 1.01H48.81c.628 0 1.138-.428 1.138-1.01v-1.981c0-.558-.494-1.011-1.138-1.011H1.137z"/>
    <path d="M1.137 0C.51 0 0 .428 0 1.01v1.981c0 .558.494 1.01 1.139 1.01H48.81c.628 0 1.138-.428 1.138-1.01V1.01c0-.558-.494-1.01-1.138-1.01H1.137zm0 10.003c-.627 0-1.137.428-1.137 1.01v1.98c0 .557.494 1.01 1.139 1.01H48.81c.628 0 1.138-.428 1.138-1.01v-1.98c0-.558-.494-1.01-1.138-1.01H1.137zm0 10.002C.51 20.005 0 20.434 0 21.016v1.981c0 .557.494 1.01 1.139 1.01H48.81c.628 0 1.138-.428 1.138-1.01v-1.981c0-.558-.494-1.011-1.138-1.011H1.137z"/>
  </symbol>
  <symbol id="icon-menu-cross" viewBox="0 0 23.867 23.867">
    <path d="M15.087 11.933l8.56-8.559a.75.75 0 0 0 0-1.061L21.554.22a.747.747 0 0 0-1.06 0l-8.561 8.56L3.373.22a.771.771 0 0 0-1.061 0L.22 2.313a.75.75 0 0 0 0 1.061l8.56 8.559-8.56 8.559a.751.751 0 0 0 0 1.062l2.093 2.094a.744.744 0 0 0 1.06 0l8.561-8.56 8.56 8.56a.746.746 0 0 0 1.06 0l2.093-2.094a.751.751 0 0 0 0-1.062l-8.56-8.559z"/>
  </symbol>
  <symbol id="logo-htmlacademy" viewBox="0 0 26.943 34.09">
    <path d="M13.62.017L13.472 0 0 1.412v24.661l13.472 8.017 13.43-7.99.042-.026V1.412L13.62.017zm11.399 12.11L13.495 5.334l-.001-.104-.087.05-.088-.056v.109L1.925 12.118V3.147l11.547-1.212 11.547 1.212v8.98zm-11.614-5.34L24.923 13.5l-4.479 2.64-7.093-4.221-.013 1.415 5.904 3.513-.86.507-5.031-2.992-.013 1.415 3.827 2.275-.782.523-3.032-1.787-.013 1.413 1.852 1.091-1.8 1.081-11.356-6.751 11.371-6.835zm-11.48 8.34l11.411 6.791.015 1.044-7.941-4.728-.015 1.416 7.979 4.796.017 1.076-7.972-4.741-.013 1.415 8.021 4.821.045.026 8.143-4.872v-1.268l-.011-.148v-3.761l3.415-2.036v10.02L13.472 31.85 1.925 24.979v-9.852z"/>
  </symbol>
  <symbol id="logo-pink-sm" viewBox="0 0 74.4 22.9">
    <path d="M0 1.4C0 .7.6.1 1.3.1h7.2c5.1 0 8.4 2.7 8.4 7.1v.1c0 4.9-4.1 7.4-8.9 7.4H2.5v6.8c0 .7-.6 1.3-1.3 1.3-.7 0-1.3-.6-1.3-1.3V1.4zm8.1 11c3.7 0 6.2-2 6.2-5 0-3.2-2.4-4.9-6.1-4.9H2.5v9.9h5.6z"/>
    <path d="M21.7 1.3c0-.7.6-1.3 1.3-1.3.7 0 1.3.6 1.3 1.3v20.3c0 .7-.6 1.3-1.3 1.3-.7 0-1.3-.6-1.3-1.3V1.3z"/>
    <path d="M30.9 1.3c0-.7.6-1.3 1.3-1.3h.4c.6 0 .9.3 1.3.7l13.7 17.5v-17C47.5.6 48 0 48.7 0c.7 0 1.2.6 1.2 1.3v20.3c0 .7-.5 1.2-1.2 1.2h-.1c-.5 0-.9-.3-1.3-.8l-14-17.9v17.5c0 .7-.5 1.3-1.3 1.3-.7 0-1.2-.6-1.2-1.3.1 0 .1-20.3.1-20.3z"/>
    <path d="M56.3 1.3c0-.7.6-1.3 1.3-1.3.7 0 1.3.6 1.3 1.3v12.3L71.7.5c.3-.3.6-.5 1-.5.7 0 1.2.6 1.2 1.3 0 .4-.2.6-.4.9l-8 7.9 8.6 10.6c.2.3.4.5.4.9 0 .7-.6 1.3-1.3 1.3-.5 0-.8-.3-1-.6l-8.4-10.5-4.9 4.9v4.9c0 .7-.6 1.3-1.3 1.3-.7 0-1.3-.6-1.3-1.3V1.3z"/>
  </symbol>

  <symbol id="logo-pink-lg-bottom" viewBox="0 0 146.3 40.4">
    <g id="logo-pink-lg-bottom-1">
      <path d="M71.9 18.7c0-.7.6-1.3 1.3-1.3h7.2c5.1 0 8.4 2.7 8.4 7.1v.1c0 4.9-4.1 7.4-8.9 7.4h-5.5v6.8c0 .7-.6 1.3-1.3 1.3-.7 0-1.3-.6-1.3-1.3l.1-20.1zM80 29.6c3.7 0 6.2-2 6.2-5v-.1c0-3.2-2.4-4.9-6.1-4.9h-5.7v9.9l5.6.1z"/>
      <path d="M93.6 18.5c0-.7.6-1.3 1.3-1.3.7 0 1.3.6 1.3 1.3v20.3c0 .7-.6 1.3-1.3 1.3-.7 0-1.3-.6-1.3-1.3V18.5z"/>
      <path d="M102.7 18.5c0-.7.6-1.3 1.3-1.3h.4c.6 0 .9.3 1.3.7l13.7 17.5v-17c0-.7.5-1.3 1.3-1.3.7 0 1.2.6 1.2 1.3v20.3c0 .7-.5 1.2-1.2 1.2h-.1c-.5 0-.9-.3-1.3-.8l-14-17.9v17.4c0 .7-.5 1.3-1.3 1.3-.7 0-1.2-.6-1.2-1.3l-.1-20.1z"/>
      <path d="M128.2 18.5c0-.7.6-1.3 1.3-1.3s1.3.6 1.3 1.3v12.3l12.8-13.2c.3-.3.6-.5 1-.5.7 0 1.2.6 1.2 1.3 0 .4-.2.6-.4.9l-8 7.9 8.6 10.6c.2.3.4.5.4.9 0 .7-.6 1.3-1.3 1.3-.5 0-.8-.3-1-.6L135.6 29l-4.9 4.9v4.9c0 .7-.6 1.3-1.3 1.3s-1.3-.6-1.3-1.3l.1-20.3z"/>
      <path d="M50.7 16.1c-2.5 0-4.5-2-4.5-4.5 0 2.5-2 4.5-4.5 4.5 2.5 0 4.5 2 4.5 4.5 0-2.5 2-4.5 4.5-4.5z"/>
      <path d="M37.9 19.6c-1.5 0-2.7-1.2-2.7-2.7 0 1.5-1.2 2.7-2.7 2.7 1.5 0 2.7 1.2 2.7 2.7 0-1.4 1.2-2.7 2.7-2.7z"/>
      <path d="M10.7 34.1c-1.5 0-2.7-1.2-2.7-2.8 0 1.5-1.2 2.8-2.7 2.8 1.5 0 2.7 1.2 2.7 2.7 0-1.5 1.2-2.7 2.7-2.7z"/>
     </g>
      <g id="logo-pink-lg-bottom-2">
        <path d="M43.1 19.3h.7c-.4-.7-1.2-1.2-2.1-1.2-.9 0-1.6-.6-1.9-1.4-.7.2-1.4.5-2.1.8h.2c1.1 0 2 .9 2 2v.3c1-.3 2.1-.5 3.2-.5z"/>
        <path d="M60.5 28L55.3 6.6C54.9 4.3 52.7 0 46.7 0c-.8 0-1.5.7-1.5 1.5S45.9 3 46.7 3c4.9 0 5.6 3.7 5.6 4.1l4.8 19.7H55c-.4-3.6-2.5-6.6-5.3-8.5-.9.4-1.5 1.3-1.5 2.3v.3c2 1.4 3.4 3.5 3.8 6 .1.5.1 1 .1 1.5s-.1 1-.1 1.5c-.7 4.3-4.4 7.5-8.9 7.5s-8.2-3.3-8.9-7.5c-.1-.5-.1-1-.1-1.5s.1-1 .1-1.5c.1-.9.4-1.7.8-2.5-1-.1-1.9-.9-1.9-2 0-.2-.1-.4-.2-.5-.9 1.5-1.6 3.1-1.8 5h-1.8c-.7-5.9-5.8-10.5-11.9-10.5S6.2 20.9 5.5 26.8H3.4L8.2 7.1C8.3 6.7 9 3 13.8 3c.8 0 1.5-.7 1.5-1.5S14.7 0 13.8 0c-6 0-8.2 4.3-8.6 6.7L0 28.1c-.3 1.1.5 1.8 1.4 1.8h4c.1.6.2 1.2.4 1.8.1-.1.2-.2.2-.4 0-1.1.9-2 2-2 .2 0 .3 0 .5.1 0-.3-.1-.7-.1-1 0-.5.1-1 .1-1.5.7-4.3 4.4-7.5 8.9-7.5s8.2 3.3 8.9 7.5c.1.5.1 1 .1 1.5s-.1 1-.1 1.5c-.7 4.3-4.4 7.5-8.9 7.5-2 0-3.9-.7-5.4-1.8-.4.3-.8.5-1.3.5-.4 0-.7.3-.7.7 0 .3-.1.6-.2.8 2.1 1.7 4.7 2.7 7.6 2.7 6.1 0 11.2-4.6 11.9-10.5h1.8c.7 5.9 5.8 10.5 11.9 10.5s11.3-4.5 12-10.5h4c.9 0 1.7-.7 1.5-1.8z"/>
        <path d="M98.5 9.9c-2 0-3.6-1.6-3.6-3.6 0 2-1.6 3.6-3.6 3.6 2 0 3.6 1.6 3.6 3.6 0-2 1.6-3.6 3.6-3.6z"/>
      </g>
    </symbol>
    <symbol id="logo-pink-lg-top" viewBox="0 0 146.3 40.4">
      <g id="logo-pink-lg-top-1">
        <path d="M71.9 18.7c0-.7.6-1.3 1.3-1.3h7.2c5.1 0 8.4 2.7 8.4 7.1v.1c0 4.9-4.1 7.4-8.9 7.4h-5.5v6.8c0 .7-.6 1.3-1.3 1.3-.7 0-1.3-.6-1.3-1.3l.1-20.1zM80 29.6c3.7 0 6.2-2 6.2-5v-.1c0-3.2-2.4-4.9-6.1-4.9h-5.7v9.9l5.6.1z"/>
        <path d="M93.6 18.5c0-.7.6-1.3 1.3-1.3.7 0 1.3.6 1.3 1.3v20.3c0 .7-.6 1.3-1.3 1.3-.7 0-1.3-.6-1.3-1.3V18.5z"/>
        <path d="M102.7 18.5c0-.7.6-1.3 1.3-1.3h.4c.6 0 .9.3 1.3.7l13.7 17.5v-17c0-.7.5-1.3 1.3-1.3.7 0 1.2.6 1.2 1.3v20.3c0 .7-.5 1.2-1.2 1.2h-.1c-.5 0-.9-.3-1.3-.8l-14-17.9v17.5c0 .7-.5 1.3-1.3 1.3-.7 0-1.2-.6-1.2-1.3l-.1-20.2z"/>
        <path d="M128.2 18.5c0-.7.6-1.3 1.3-1.3.7 0 1.3.6 1.3 1.3v12.3l12.8-13.2c.3-.3.6-.5 1-.5.7 0 1.2.6 1.2 1.3 0 .4-.2.6-.4.9l-8 7.9 8.6 10.6c.2.3.4.5.4.9 0 .7-.6 1.3-1.3 1.3-.5 0-.8-.3-1-.6L135.6 29l-4.9 4.9v4.9c0 .7-.6 1.3-1.3 1.3-.7 0-1.3-.6-1.3-1.3l.1-20.3z"/>
        <path d="M43.1 19.3h.7c-.4-.7-1.2-1.2-2.1-1.2-.9 0-1.6-.6-1.9-1.4-.7.2-1.4.5-2.1.8h.2c1.1 0 2 .9 2 2v.3c1-.3 2.1-.5 3.2-.5z"/>
        <path d="M60.5 28L55.3 6.6C54.9 4.3 52.7 0 46.7 0c-.8 0-1.5.7-1.5 1.5S45.9 3 46.7 3c4.9 0 5.6 3.7 5.6 4.1l4.8 19.7H55c-.4-3.6-2.5-6.6-5.3-8.5-.9.4-1.5 1.3-1.5 2.3v.3c2 1.4 3.4 3.5 3.8 6 .1.5.1 1 .1 1.5s-.1 1-.1 1.5c-.7 4.3-4.4 7.5-8.9 7.5s-8.2-3.3-8.9-7.5c-.1-.5-.1-1-.1-1.5s.1-1 .1-1.5c.1-.9.4-1.7.8-2.5-1-.1-1.9-.9-1.9-2 0-.2-.1-.4-.2-.5-.9 1.5-1.6 3.1-1.8 5h-1.8c-.7-5.9-5.8-10.5-11.9-10.5S6.2 20.9 5.5 26.8H3.4L8.2 7.1C8.3 6.7 9 3 13.8 3c.8 0 1.5-.7 1.5-1.5S14.7 0 13.8 0c-6 0-8.2 4.3-8.6 6.7L0 28.1c-.3 1.1.5 1.8 1.4 1.8h4c.1.6.2 1.2.4 1.8.1-.1.2-.2.2-.4 0-1.1.9-2 2-2 .2 0 .3 0 .5.1 0-.3-.1-.7-.1-1 0-.5.1-1 .1-1.5.7-4.3 4.4-7.5 8.9-7.5s8.2 3.3 8.9 7.5c.1.5.1 1 .1 1.5s-.1 1-.1 1.5c-.7 4.3-4.4 7.5-8.9 7.5-2 0-3.9-.7-5.4-1.8-.4.3-.8.5-1.3.5-.4 0-.7.3-.7.7 0 .3-.1.6-.2.8 2.1 1.7 4.7 2.7 7.6 2.7 6.1 0 11.2-4.6 11.9-10.5h1.8c.7 5.9 5.8 10.5 11.9 10.5s11.3-4.5 12-10.5h4c.9 0 1.7-.7 1.5-1.8z"/>
      </g>
      <g id="logo-pink-lg-top-2">
        <path d="M10.7 34.1c-1.5 0-2.7-1.2-2.7-2.8 0 1.5-1.2 2.8-2.7 2.8 1.5 0 2.7 1.2 2.7 2.7 0-1.5 1.2-2.7 2.7-2.7z"/>
        <path d="M37.9 19.6c-1.5 0-2.7-1.2-2.7-2.7 0 1.5-1.2 2.7-2.7 2.7 1.5 0 2.7 1.2 2.7 2.7 0-1.4 1.2-2.7 2.7-2.7z"/>
        <path d="M50.7 16.1c-2.5 0-4.5-2-4.5-4.5 0 2.5-2 4.5-4.5 4.5 2.5 0 4.5 2 4.5 4.5 0-2.5 2-4.5 4.5-4.5z"/>
        <path d="M98.5 9.9c-2 0-3.6-1.6-3.6-3.6 0 2-1.6 3.6-3.6 3.6 2 0 3.6 1.6 3.6 3.6 0-2 1.6-3.6 3.6-3.6z"/>
      </g>
    </symbol>
    <symbol id="logo-pink-md" viewBox="0 0 146.3 40.4">
      <g id="logo-pink-md-1">
        <path d="M71.9 18.7c0-.7.6-1.3 1.3-1.3h7.2c5.1 0 8.4 2.7 8.4 7.1v.1c0 4.9-4.1 7.4-8.9 7.4h-5.5v6.8c0 .7-.6 1.3-1.3 1.3-.7 0-1.3-.6-1.3-1.3l.1-20.1zM80 29.6c3.7 0 6.2-2 6.2-5v-.1c0-3.2-2.4-4.9-6.1-4.9h-5.7v9.9l5.6.1z"/>
        <path d="M93.6 18.5c0-.7.6-1.3 1.3-1.3.7 0 1.3.6 1.3 1.3v20.3c0 .7-.6 1.3-1.3 1.3-.7 0-1.3-.6-1.3-1.3V18.5z"/>
        <path d="M102.7 18.5c0-.7.6-1.3 1.3-1.3h.4c.6 0 .9.3 1.3.7l13.7 17.5v-17c0-.7.5-1.3 1.3-1.3.7 0 1.2.6 1.2 1.3v20.3c0 .7-.5 1.2-1.2 1.2h-.1c-.5 0-.9-.3-1.3-.8l-14-17.9v17.5c0 .7-.5 1.3-1.3 1.3-.7 0-1.2-.6-1.2-1.3l-.1-20.2z"/>
        <path d="M128.2 18.5c0-.7.6-1.3 1.3-1.3s1.3.6 1.3 1.3v12.3l12.8-13.2c.3-.3.6-.5 1-.5.7 0 1.2.6 1.2 1.3 0 .4-.2.6-.4.9l-8 7.9 8.6 10.6c.2.3.4.5.4.9 0 .7-.6 1.3-1.3 1.3-.5 0-.8-.3-1-.6L135.6 29l-4.9 4.9v4.9c0 .7-.6 1.3-1.3 1.3s-1.3-.6-1.3-1.3l.1-20.3z"/>
      </g>
      <path id="logo-pink-md-2" d="M60.5 28L55.3 6.6C54.9 4.3 52.7 0 46.7 0c-.8 0-1.5.7-1.5 1.5S45.9 3 46.7 3c4.9 0 5.6 3.7 5.6 4.1l4.8 19.7H55c-.7-5.9-5.8-10.5-11.9-10.5s-11.2 4.6-11.9 10.5h-1.8c-.7-5.9-5.8-10.5-11.9-10.5s-11.3 4.6-12 10.5H3.4L8.2 7.1c0-.4.8-4.1 5.6-4.1.8 0 1.5-.7 1.5-1.5S14.7 0 13.8 0c-6 0-8.2 4.3-8.6 6.7L0 28.1c-.3 1.1.5 1.8 1.4 1.8h4c.7 5.9 5.8 10.5 11.9 10.5s11.2-4.6 11.9-10.5H31c.7 5.9 5.8 10.5 11.9 10.5S54.3 35.8 55 29.8h4c.9 0 1.7-.7 1.5-1.8zm-34.2 1.8c-.7 4.3-4.4 7.5-8.9 7.5S9.2 34 8.5 29.8c-.1-.5-.1-1-.1-1.5s.1-1 .1-1.5c.7-4.3 4.4-7.5 8.9-7.5s8.2 3.3 8.9 7.5c.1.5.1 1 .1 1.5s0 1.1-.1 1.5zm25.7 0c-.7 4.3-4.4 7.5-8.9 7.5s-8.2-3.3-8.9-7.5c-.1-.5-.1-1-.1-1.5s.1-1 .1-1.5c.7-4.3 4.4-7.5 8.9-7.5s8.2 3.3 8.9 7.5c.1.5.1 1 .1 1.5s0 1.1-.1 1.5z"/>
    </symbol>
    <symbol id="icon-editor-contrast" viewBox="-35.422 -7.96 31.92 31.92">
      <path d="M-19.462-3.96c6.595 0 11.96 5.365 11.96 11.96s-5.365 11.96-11.96 11.96-11.96-5.365-11.96-11.96 5.365-11.96 11.96-11.96m0-4c-8.814 0-15.96 7.145-15.96 15.96 0 8.813 7.146 15.96 15.96 15.96S-3.502 16.813-3.502 8c0-8.815-7.146-15.96-15.96-15.96z"/>
      <path d="M-19.462 16.331a8.519 8.519 0 0 0 8.52-8.52 8.518 8.518 0 0 0-8.52-8.519"/>
    </symbol>
    <symbol id="icon-editor-crop" viewBox="0 0 48 48">
      <path d="M34 30h4V14c0-2.21-1.79-4-4-4H18v4h16v16zm-20 4V2h-4v8H2v4h8v20c0 2.21 1.79 4 4 4h20v8h4v-8h8v-4H14z"/>
    </symbol>
    <symbol id="icon-editor-fill" viewBox="0 0 48 48">
      <path d="M33.12 17.88L15.24 0l-2.83 2.83 4.76 4.76L6.88 17.88a3 3 0 0 0 0 4.24l11 11c.58.59 1.35.88 2.12.88s1.54-.29 2.12-.88l11-11a3 3 0 0 0 0-4.24zM10.41 20L20 10.42 29.59 20H10.41zM38 23s-4 4.33-4 7c0 2.21 1.79 4 4 4s4-1.79 4-4c0-2.67-4-7-4-7z"/><path d="M0 40h48v3H0z"/>
    </symbol>
    <symbol id="icon-yes" viewBox="-82.357 4.875 21.698 16.09">
      <path d="M-60.953,5.167c-0.391-0.391-1.023-0.391-1.414,0L-75.75,18.551l-4.9-4.9c-0.391-0.391-1.023-0.391-1.414,0 s-0.391,1.023,0,1.414l5.607,5.607c0.195,0.195,0.451,0.293,0.707,0.293s0.512-0.098,0.707-0.293l14.09-14.0 C-60.562,6.191-60.562,5.558-60.953,5.167z"/>
    </symbol>
    <symbol id="icon-no" viewBox="0 0 26.752 26.752">
      <path d="M15.497,13.376L26.312,2.562c0.586-0.585,0.586-1.535,0-2.121s-1.535-0.586-2.121,0L13.376,11.255L2.562,0.439 c-0.586-0.586-1.535-0.586-2.121,0c-0.586,0.585-0.586,1.535,0,2.121l10.814,10.815L0.439,24.19c-0.586,0.586-0.586,1.535,0,2.121 c0.293,0.293,0.677,0.439,1.061,0.439s0.768-0.146,1.061-0.439l10.815-10.814L24.19,26.312c0.293,0.293,0.677,0.439,1.061,0.439 s0.768-0.146,1.061-0.439c0.586-0.586,0.586-1.535,0-2.121L15.497,13.376z"/>
    </symbol>
    <symbol id="icon-phone" viewBox="0 0 19.697 19.696">
      <path fill="#FFFFFF" d="M9.848,0C6.34,0,2.823,0.628,1.546,1.878c-1.058,1.04-1.412,2.874-1.53,4.035c0,0-0.016,0.115-0.016,0.165 c0,0.454,0.369,0.82,0.819,0.82c0.054,0,2.028-0.161,3.218-0.259c0.029-0.004,0.058-0.008,0.086-0.017 C4.566,6.61,4.924,6.25,4.924,5.803l0.003-1.617c0-0.5,0.407-0.902,0.907-0.902h8.027c0.499,0,0.907,0.402,0.907,0.902l0.003,1.617 c0,0.447,0.356,0.808,0.802,0.82c0.027,0.009,0.056,0.013,0.085,0.017c1.19,0.098,3.164,0.259,3.217,0.259 c0.451,0,0.822-0.366,0.822-0.82c0-0.05-0.018-0.165-0.018-0.165c-0.118-1.161-0.472-2.995-1.53-4.035 C16.873,0.628,13.356,0,9.848,0z M9.848,10.67c-0.908,0-1.643,0.733-1.643,1.64c0,0.907,0.734,1.641,1.643,1.641 c0.906,0,1.641-0.733,1.641-1.641C11.488,11.404,10.754,10.67,9.848,10.67z M8.616,6.975V5.951c0-0.567-0.46-1.026-1.025-1.026 c-0.566,0-1.024,0.459-1.024,1.026v1.024l-5.537,5.913c-0.382,0.376-0.619,0.894-0.619,1.47v1.646c0,0.907,0.734,1.643,1.641,1.643 h0.411v1.023c0,0.568,0.46,1.026,1.026,1.026c0.565,0,1.024-0.458,1.024-1.026v-1.023h10.669v1.023c0,0.568,0.46,1.026,1.025,1.026 c0.567,0,1.026-0.458,1.026-1.026v-1.023h0.411c0.905,0,1.64-0.735,1.64-1.643v-1.646c0-0.576-0.236-1.094-0.618-1.47L13.13,6.975 V5.951c0-0.567-0.459-1.026-1.024-1.026c-0.567,0-1.027,0.459-1.027,1.026v1.024H8.616z M9.848,9.028 c1.814,0,3.282,1.468,3.282,3.282s-1.468,3.282-3.282,3.282c-1.813,0-3.281-1.468-3.281-3.282S8.034,9.028,9.848,9.028z"/>
    </symbol>
  </svg>
